PathFileType	4	(X/Y/Z)	1103211_Cal01.trc	
DataRate	CameraRate	NumFrames	NumMarkers	Units	OrigDataRate	OrigDataStartFrame	OrigNumFrames
300	300	5	77	mm	300	212	337
Frame#	Time	CLAV			STRN			RSHO			LSHO			C7			T10			RBAK			RASI			LASI			RPSI			LPSI			LGTR			RGTR			LHJC			RHJC			LMFC			RMFC			LLTP			RLTP			LMTP			RMTP			LANK			RANK			LMMA			RMMA			LHEE			RHEE			LMT5			RMT5			LTOE			RTOE			RELB			RWRA			RWRB			RFIN			LELB			LWRB			LWRA			LFIN			RFP1			RFP2			RFP3			RFM1			RFM2			RFM3			RFA1			RFA2			RFA3			LFP1			LFP2			LFP3			LFM1			LFM2			LFM3			LFA1			LFA2			LFA3			LKNE			RKNE			RTP1			RTP2			RTP3			RTA1			RTA2			RTA3			LTP1			LTP2			LTP3			LTA1			LFHD			LBHD			RFHD			RBHD			LUPA			LFRA			RUPA			RFRA			
		X1	Y1	Z1	X2	Y2	Z2	X3	Y3	Z3	X4	Y4	Z4	X5	Y5	Z5	X6	Y6	Z6	X7	Y7	Z7	X8	Y8	Z8	X9	Y9	Z9	X10	Y10	Z10	X11	Y11	Z11	X12	Y12	Z12	X13	Y13	Z13	X14	Y14	Z14	X15	Y15	Z15	X16	Y16	Z16	X17	Y17	Z17	X18	Y18	Z18	X19	Y19	Z19	X20	Y20	Z20	X21	Y21	Z21	X22	Y22	Z22	X23	Y23	Z23	X24	Y24	Z24	X25	Y25	Z25	X26	Y26	Z26	X27	Y27	Z27	X28	Y28	Z28	X29	Y29	Z29	X30	Y30	Z30	X31	Y31	Z31	X32	Y32	Z32	X33	Y33	Z33	X34	Y34	Z34	X35	Y35	Z35	X36	Y36	Z36	X37	Y37	Z37	X38	Y38	Z38	X39	Y39	Z39	X40	Y40	Z40	X41	Y41	Z41	X42	Y42	Z42	X43	Y43	Z43	X44	Y44	Z44	X45	Y45	Z45	X46	Y46	Z46	X47	Y47	Z47	X48	Y48	Z48	X49	Y49	Z49	X50	Y50	Z50	X51	Y51	Z51	X52	Y52	Z52	X53	Y53	Z53	X54	Y54	Z54	X55	Y55	Z55	X56	Y56	Z56	X57	Y57	Z57	X58	Y58	Z58	X59	Y59	Z59	X60	Y60	Z60	X61	Y61	Z61	X62	Y62	Z62	X63	Y63	Z63	X64	Y64	Z64	X65	Y65	Z65	X66	Y66	Z66	X67	Y67	Z67	X68	Y68	Z68	X69	Y69	Z69	X70	Y70	Z70	X71	Y71	Z71	X72	Y72	Z72	X73	Y73	Z73	X74	Y74	Z74	X75	Y75	Z75	X76	Y76	Z76	X77	Y77	Z77	

211	0.70000	189.17342	1375.11279	-47.91283	240.47664	1203.81006	-51.21358	88.13501	1424.66309	88.91800	87.31491	1433.61621	-192.42125	49.41637	1429.63525	-46.88225	14.74473	1135.23254	-53.14241	-8.82559	1327.16138	44.15413	178.68446	946.99286	60.46698	174.80826	953.34332	-166.90419	-1.77750	955.79608	-1.75253	-2.96634	954.77136	-99.85674	108.82831	869.11591	-218.34572	108.51947	858.06421	117.77994	103.16013	872.91711	-133.99364	102.40746	868.53302	24.93021	62.95650	467.02609	-84.59612	65.63820	471.49725	-16.41133	71.59859	447.70050	-213.56120	77.54395	451.00626	110.51483	61.68996	438.06314	-93.74458	65.74918	441.01907	-7.37617	57.35300	91.03491	-207.08321	55.85600	87.30752	108.49252	73.27737	98.73296	-121.37746	80.48041	92.79666	24.83453	-14.69540	59.85159	-159.35277	-16.03233	63.22944	60.30818	168.29396	30.78661	-243.67119	165.71748	40.94825	157.66893	212.97899	65.02885	-176.10338	214.52138	65.33488	91.06895	60.84422	1296.83301	347.00095	91.56212	1311.08069	592.15814	57.46092	1246.38928	586.33484	55.35548	1299.75366	666.77252	42.84843	1302.31873	-436.35638	36.69156	1263.97119	-685.69769	68.74966	1325.72424	-679.68433	30.24137	1320.56567	-759.00092	106.65852	762.88245	130.88242	105.04733	669.22559	129.80258	99.12033	577.73047	117.49152	168.93834	818.60291	112.18652	176.16060	717.59564	117.00873	173.29112	625.44641	107.00519	213.33003	771.86316	65.51988	208.14162	671.44348	64.31198	190.45213	581.12878	51.26341	106.50156	769.36267	-230.04329	101.21906	659.69885	-224.44969	92.67096	582.90173	-214.17064	164.31598	825.09576	-212.04280	165.78249	719.08374	-218.60832	158.93109	625.91290	-210.06609	215.87950	769.72412	-160.03114	206.91054	666.37573	-148.72142	186.51515	576.71149	-143.10374	77.45836	485.31235	-209.93016	88.17451	479.14676	108.26030	63.87285	374.21536	128.07733	54.88261	268.95490	125.11465	54.40086	182.73380	114.17331	124.43126	393.34991	63.00488	116.12578	315.70044	62.13246	107.97319	232.94916	64.54643	67.84230	360.08914	-229.25487	65.32416	278.99167	-225.99553	62.09459	193.91060	-216.99104	120.71402	400.85553	-156.68672	NaN	NaN	NaN	73.49147	1608.18652	-128.96077	177.40266	1625.92981	38.39230	186.85686	1634.69409	-109.10582	63.27457	1394.27356	-292.94476	25.55533	1307.89148	-584.43054	57.78467	1336.51135	273.26471	44.73407	1293.55078	431.12024	
212	0.70333	189.18291	1375.12793	-47.92323	240.48924	1203.82117	-51.22813	88.13052	1424.64368	88.92258	87.28615	1433.59534	-192.43367	49.41110	1429.62988	-46.92146	14.72527	1135.19214	-53.18398	-8.84074	1327.13940	44.12320	178.79924	946.99158	60.21004	174.74004	953.29517	-167.12077	-1.71530	955.72931	-1.86604	-2.98384	954.77850	-99.94017	108.85593	869.06604	-218.35201	108.57568	858.06256	117.94353	103.12076	872.87384	-134.15547	102.49646	868.52161	24.76981	62.95303	467.01352	-84.59514	65.67235	471.44800	-16.42308	71.63168	447.67679	-213.57210	77.53571	450.99487	110.51530	61.90446	437.86545	-93.70088	65.65918	440.99692	-7.36900	57.41362	90.94207	-207.08971	55.86697	87.32473	108.49802	73.27229	98.73450	-121.37450	80.49445	92.79988	24.85547	-14.71614	59.84112	-159.37904	-15.91634	62.95987	60.13776	168.29759	30.74943	-243.66539	165.74437	40.93264	157.67459	212.93694	64.99166	-176.11360	214.51808	65.31211	91.07143	60.80147	1296.78027	347.01294	91.52985	1311.02844	592.11743	57.46230	1246.33228	586.33105	55.33484	1299.71912	666.74762	42.84616	1302.30457	-436.36029	36.68549	1263.99390	-685.69287	68.70340	1325.74133	-679.70721	30.17656	1320.62244	-759.03235	106.60405	762.89282	130.91579	104.99321	669.22498	129.79337	99.10770	577.71252	117.48758	168.88806	818.60956	112.15866	176.13622	717.58044	116.98410	173.24355	625.43628	107.03477	213.31956	771.84351	65.54909	208.08745	671.41534	64.33838	190.43938	581.13318	51.29422	106.52907	769.33246	-230.03108	101.23436	659.65741	-224.45201	92.64055	582.88007	-214.16512	164.31390	825.04333	-212.05260	165.80196	719.04480	-218.59511	158.94548	625.89215	-210.06227	215.82155	769.67291	-160.00441	206.83522	666.29834	-148.72047	186.57603	576.66937	-143.09953	77.42448	485.26050	-209.95686	88.17116	479.15616	108.24940	63.86067	374.20065	128.08691	54.88438	268.93698	125.11121	54.39366	182.70424	114.18651	124.42921	393.33826	63.03087	116.08797	315.67603	62.15688	107.98709	232.91122	64.54233	67.76903	360.02927	-229.22346	65.14941	278.98151	-225.94249	62.10002	193.88615	-216.99071	120.67413	400.81104	-156.69136	NaN	NaN	NaN	73.87895	1608.11023	-128.82033	177.39622	1625.87964	38.39056	186.84850	1634.67761	-109.10808	63.26672	1394.22705	-292.93860	25.51167	1307.87317	-584.48883	57.74907	1336.51819	273.28268	44.67874	1293.49182	431.10858	
213	0.70667	189.16679	1375.13452	-47.89729	240.48466	1203.79529	-51.19966	88.13281	1424.61987	88.91711	87.26712	1433.55127	-192.46227	49.41063	1429.60181	-46.93437	14.72652	1135.17578	-53.18925	-8.84116	1327.13159	44.11737	178.78432	946.94324	60.19183	174.75478	953.22076	-167.13307	-1.71957	955.73663	-1.90736	-2.97729	954.77515	-99.97575	108.84892	869.06531	-218.35283	108.53242	858.05255	117.96625	103.10318	872.82867	-134.17030	102.45827	868.49579	24.75542	62.99480	466.97772	-84.59737	65.64801	471.45175	-16.41139	71.62360	447.63132	-213.56779	77.49788	450.99585	110.52284	61.71980	437.97968	-93.76964	65.68054	440.97473	-7.38249	57.41273	90.91988	-207.08556	55.86185	87.31660	108.49570	73.27617	98.66988	-121.37956	80.52927	92.77563	24.86340	-14.72829	59.82388	-159.40672	-15.89853	62.89748	60.05788	168.25905	30.72171	-243.67595	165.73203	40.92501	157.67261	212.97005	64.97029	-176.12175	214.54301	65.28037	91.03464	60.80449	1296.76001	347.01202	91.48453	1310.96899	592.11029	57.50433	1246.25623	586.26050	55.29277	1299.70728	666.71136	42.81796	1302.27734	-436.37506	36.63509	1264.06067	-685.74634	68.68871	1325.77148	-679.70599	30.16926	1320.63135	-759.03961	106.54552	762.91693	130.89946	104.98088	669.20746	129.78922	99.08771	577.71558	117.50774	168.79955	818.68353	112.23946	176.10246	717.57227	116.98799	173.23518	625.42114	107.02129	213.27769	771.82422	65.54620	208.07784	671.37860	64.34445	190.40434	581.09509	51.29485	106.61093	769.29865	-230.03798	101.20184	659.62854	-224.44676	92.64755	582.84265	-214.19701	164.35446	825.02197	-212.05513	165.82957	719.05322	-218.59062	159.10944	625.87195	-210.00688	215.81844	769.64294	-160.00322	206.88066	666.29199	-148.69102	186.61885	576.64020	-143.09743	77.43727	485.26093	-209.93492	88.15009	479.15894	108.25662	63.82298	374.20041	128.09442	54.83403	268.93478	125.10744	54.40234	182.67433	114.16599	124.38382	393.34830	63.01825	116.09477	315.63577	62.14928	107.93274	232.90105	64.60420	67.78169	359.97955	-229.24007	65.32817	278.89096	-226.00212	62.10889	193.86348	-216.98991	120.64809	400.77863	-156.68706	NaN	NaN	NaN	73.90263	1608.10547	-128.77470	177.41521	1625.85010	38.40224	186.85091	1634.65442	-109.10652	63.23743	1394.21362	-292.96606	25.52565	1307.92566	-584.50470	57.76366	1336.49060	273.12949	44.64392	1293.46436	431.08246	
214	0.71000	189.16737	1375.12512	-47.91808	240.48842	1203.77368	-51.25838	88.08624	1424.59546	88.88757	87.26888	1433.55188	-192.46339	49.41124	1429.59473	-46.93803	14.74126	1135.14514	-53.17448	-8.84145	1327.12024	44.10556	178.77730	946.93475	60.18105	174.74219	953.21521	-167.13921	-1.72741	955.74200	-1.91382	-2.98855	954.76868	-99.97832	108.84714	869.04718	-218.35597	108.50639	858.05823	117.97026	103.08849	872.82538	-134.17787	102.44753	868.49042	24.74783	63.00621	466.97485	-84.59807	65.66403	471.40027	-16.42055	71.65739	447.61325	-213.57100	77.47116	450.98239	110.52957	61.95790	437.82996	-93.74571	65.65686	440.91876	-7.37413	57.46381	90.90453	-207.10225	55.86462	87.29981	108.51743	73.27914	98.66401	-121.38106	80.56281	92.76003	24.85600	-14.73103	59.80721	-159.37703	-15.90426	62.89504	60.05730	168.46709	30.84473	-243.57979	165.74040	40.89641	157.68008	212.91896	64.92653	-176.09831	214.52342	65.25150	91.04097	60.84839	1296.70374	346.95129	91.45683	1310.92505	592.10089	57.39775	1246.24133	586.27130	55.24191	1299.65344	666.69550	42.78859	1302.28455	-436.41022	36.57410	1264.09717	-685.89288	68.69521	1325.78821	-679.71362	30.17034	1320.65430	-759.03278	106.53494	762.89917	130.86955	104.93437	669.18433	129.81519	99.05409	577.69635	117.50470	168.78191	818.63263	112.24023	176.05089	717.57452	117.01451	173.19489	625.42975	107.03059	213.23698	771.78754	65.60529	208.03001	671.36670	64.35696	190.39226	581.09973	51.32526	106.66046	769.28320	-230.04814	101.26929	659.61212	-224.47017	92.67122	582.83545	-214.21880	164.40462	825.00354	-212.06340	165.82385	719.01105	-218.61714	159.10629	625.93756	-210.30736	215.79338	769.60193	-160.00978	206.94258	666.28058	-148.68709	186.56834	576.63391	-143.06178	77.46570	485.23993	-209.97417	88.11557	479.13715	108.24698	63.81012	374.19962	128.08731	54.84175	268.91519	125.10322	54.39708	182.67256	114.16589	124.37631	393.31140	63.02545	116.08771	315.64398	62.17268	107.93777	232.88562	64.57922	67.90160	360.00232	-229.27654	65.36479	278.89221	-226.00462	62.29532	193.87599	-216.97929	120.62512	400.74570	-156.64888	NaN	NaN	NaN	74.04657	1608.42285	-128.19038	177.42036	1625.85046	38.40242	186.81221	1634.63428	-109.07448	63.19209	1394.29541	-292.98529	25.49195	1307.98340	-584.50543	57.71268	1336.45203	273.11679	44.67752	1293.44971	431.02173	
215	0.71333	189.16780	1375.12463	-47.91991	240.48302	1203.74976	-51.25349	88.07964	1424.58948	88.87405	87.25861	1433.53723	-192.44044	49.41122	1429.59497	-46.93776	14.71855	1135.15161	-53.22374	-8.84455	1327.10730	44.06076	178.71764	946.93060	60.22891	174.77223	953.18768	-167.10542	-1.76292	955.73029	-1.93723	-2.98381	954.76178	-100.01207	108.86832	869.02606	-218.35231	108.44992	858.03650	117.96968	103.10281	872.80365	-134.15800	102.39899	868.48541	24.76787	63.00363	466.97620	-84.59789	65.63626	471.43106	-16.44774	71.63542	447.62048	-213.56548	77.43823	450.96973	110.53979	61.97067	437.85086	-93.69960	65.65765	440.89499	-7.37798	57.48232	90.88886	-207.10292	55.87663	87.31741	108.52348	73.34764	98.62650	-121.41838	80.55122	92.74186	24.84961	-14.71071	59.80812	-159.39922	-15.90676	62.88326	60.06833	168.53058	30.83526	-243.57695	165.76157	40.88232	157.68291	212.93352	64.94928	-176.07466	214.52049	65.23577	91.06999	60.82225	1296.69019	346.92328	91.46349	1310.90100	592.04681	57.43764	1246.19287	586.24414	55.24496	1299.62549	666.67383	42.80446	1302.30640	-436.42633	36.61208	1264.11609	-685.74689	68.67015	1325.84546	-679.75476	30.15256	1320.69482	-759.06921	106.47923	762.87592	130.86740	104.86578	669.20508	129.81395	99.00223	577.69110	117.47835	168.73247	818.61505	112.24841	176.00423	717.56995	117.00226	173.14769	625.42688	107.03461	213.23103	771.77637	65.60365	207.97188	671.34515	64.36267	190.34764	581.08020	51.36815	106.63318	769.27075	-230.05443	101.24495	659.59503	-224.49287	92.64424	582.83185	-214.17632	164.39192	825.00214	-212.05464	165.81052	718.99854	-218.61998	159.12210	625.94135	-210.29781	215.78969	769.60388	-160.00966	206.90923	666.27783	-148.71761	186.55644	576.60315	-143.05714	77.44003	485.25269	-209.98073	88.11826	479.10309	108.25581	63.80226	374.19531	128.06635	54.83020	268.89856	125.13872	54.38261	182.64990	114.17593	124.38286	393.31128	63.02983	116.08498	315.64514	62.17316	107.94553	232.87555	64.61380	67.83353	359.99023	-229.23265	65.34868	278.86078	-225.99229	62.12772	193.82677	-216.98247	120.71124	400.78555	-156.68044	NaN	NaN	NaN	73.90227	1608.13062	-128.71321	177.41978	1625.85120	38.40228	186.79311	1634.63379	-109.12740	63.15294	1394.33130	-292.99304	25.49000	1307.98462	-584.50458	57.70212	1336.42981	273.14908	44.59471	1293.41235	431.06525	
